PathFileType	4	(X/Y/Z)	C:/Users/beibeiliu/ov580/test_trc/User2\sequence.2_training_dense_left.trc
DataRate	CameraRate	NumFrames	NumMarkers	Units	OrigDataRate	OrigDataStartFrame	OrigNumFrames
120	120	20	19	mm	120	39	307
Frame#	Time	ThumbCMC			ThumbMCP			ThumbIP			ThumbTip			IndexMCP			IndexPIP			IndexTip			MiddleMCP			MiddlePIP			MiddleTip			RingMCP			RingPIP			RingTip			PinkyMCP			PinkyPIP			PinkyTip			BackHand1			BackHand2			BackHand3	
		X0	Y0	Z0	X1	Y1	Z1	X2	Y2	Z2	X3	Y3	Z3	X4	Y4	Z4	X5	Y5	Z5	X6	Y6	Z6	X7	Y7	Z7	X8	Y8	Z8	X9	Y9	Z9	X10	Y10	Z10	X11	Y11	Z11	X12	Y12	Z12	X13	Y13	Z13	X14	Y14	Z14	X15	Y15	Z15	X16	Y16	Z16	X17	Y17	Z17	X18	Y18	Z18	
38	0.316667	-156.654	43.0306	91.1107	-122.178	48.9668	69.5345	-93.1508	36.4692	52.9438	-75.6462	14.8173	52.2066	-141.292	-13.9896	34.6602	-108.339	-13.259	20.4711	-83.8173	3.50184	37.8231	-131.432	-30.6649	42.3449	-93.5448	-24.706	38.2542	-83.3537	5.4806	65.16	-116.912	-41.274	59.7867	-86.7272	-30.1776	55.5624	-78.534	-0.180534	73.4208	-110.076	-44.8244	83.9515	-81.4484	-29.6267	79.9432	-79.6019	3.88052	91.6015	-163.13	-26.223	105.969	-178.989	-9.48495	128.472	-183.166	8.17303	93.4259	
39	0.325	-163.399	41.6718	89.8876	-133.843	51.5305	70.2183	-100.708	44.8353	48.7831	-78.0512	23.6163	45.2384	-134.782	-13.9686	31.0949	-108.646	-9.61222	19.4404	-85.8749	17.0122	34.4173	-120.078	-29.6222	42.4651	-87.8663	-11.9261	38.303	-83.1208	15.7422	61.687	-109.899	-33.5832	58.5057	-80.8916	-17.0127	55.0102	-77.7255	14.7878	74.2351	-99.4041	-36.9509	81.6635	-76.3693	-14.4909	76.7163	-82.7616	15.5953	89.3929	-159.3	-26.5647	102.63	-172.62	-14.5442	129.799	-182.483	4.94407	94.3443	
40	0.333333	-170.194	44.666	84.6318	-141.822	54.6607	64.0282	-111.607	54.0082	43.6405	-85.6115	38.5448	38.9097	-134.267	-12.3718	29.7041	-108.238	-0.983703	17.0016	-91.0914	24.3927	32.05	-117.502	-22.6679	40.1721	-88.4108	-2.54423	33.4694	-89.6749	31.3458	54.4727	-103.302	-27.2046	57.2134	-79.5939	-6.08636	49.5801	-83.663	28.0572	68.078	-98.1873	-28.0059	78.594	-74.2687	-3.90754	72.5545	-84.0626	26.2575	81.5582	-149.345	-29.2376	101.493	-168.708	-15.7802	128.954	-180.565	-1.91226	94.8568	
41	0.341667	-178.259	41.6758	84.972	-153.45	57.2322	65.4493	-121.453	60.0129	38.6553	-96.8497	45.1286	36.081	-140.573	-7.77882	27.9772	-114.826	3.13883	12.6658	-100.482	31.6213	28.4123	-117.627	-17.9525	36.0131	-92.4888	6.89878	27.3567	-93.7303	37.6704	53.726	-102.592	-21.5766	53.779	-84.2671	3.60036	42.773	-90.1792	35.3201	60.1618	-92.402	-21.8155	74.7668	-76.4641	6.68679	64.9134	-87.4488	36.0406	79.7121	-147.148	-25.929	100.202	-165.739	-15.2145	126.792	-181.536	-2.60804	95.1557	
42	0.35	-181.108	38.2373	85.4496	-164.636	59.2973	60.116	-133.534	59.1075	38.0082	-109.865	51.4646	33.0684	-148.734	-5.63212	24.4526	-121.677	11.8124	9.25624	-114.552	43.1303	26.6033	-122.448	-13.2882	30.6839	-99.1751	12.5034	22.3161	-106.863	46.0233	46.1713	-106.253	-15.7512	48.6184	-86.4359	10.567	38.9157	-96.2707	41.0673	54.1797	-94.9367	-16.0994	68.6312	-81.8942	12.4563	55.2783	-93.1557	39.826	68.3585	-147.213	-23.468	100.433	-161.85	-15.3606	128.553	-180.977	-4.83815	96.829	
43	0.358333	-188.962	37.9577	88.0296	-172.511	54.9341	61.3011	-149.943	62.164	36.0161	-120.384	51.5358	25.2114	-152.917	-6.62399	24.7725	-136.117	11.2343	4.09476	-126.884	41.9227	20.7287	-132.513	-13.4333	31.0204	-112.924	16.7158	13.7547	-115.046	44.8986	39.3479	-113.301	-12.3647	39.9405	-97.8185	10.421	28.6835	-102.175	43.6206	47.7562	-103.12	-12.9585	59.1151	-89.3672	13.2466	45.9839	-98.3521	40.2635	57.572	-148.492	-22.6208	95.8608	-158.257	-16.552	129.843	-184.731	-4.75264	98.4913	
44	0.366667	-192.033	35.0885	92.9599	-182.491	55.5435	59.3621	-161.285	59.4266	26.7302	-135.744	48.6749	21.2732	-167.843	-7.04524	24.3893	-149.297	8.40909	2.2685	-141.38	41.8839	19.8936	-146.981	-14.0005	27.7469	-126.127	10.3493	8.67103	-127.869	44.9659	32.067	-121.981	-13.4558	34.7387	-109.649	8.83892	20.5391	-112.581	43.008	38.7756	-111.877	-13.5161	57.5294	-98.8952	14.6478	37.1654	-111.241	42.1485	50.3571	-150.965	-20.9384	96.833	-162.185	-13.6764	126.457	-188.589	-7.30513	97.133	
45	0.375	-198.497	33.7084	91.4113	-190.049	50.3568	57.4426	-172.935	55.0698	30.0608	-150.925	48.9537	15.2641	-179.683	-11.8085	24.288	-164.696	6.69804	0.513712	-157.322	37.9646	14.9432	-156.682	-17.5487	23.6427	-137.884	9.95296	5.85206	-139.654	41.1452	26.4768	-137.652	-16.855	32.2763	-124.549	5.05622	14.4325	-126.445	41.5148	31.6671	-118.453	-15.1433	48.6758	-108.943	9.70845	29.7736	-117.933	37.8933	38.7892	-151.161	-22.3847	97.8923	-163.266	-13.9909	129.161	-190.697	-7.90577	102.341	
46	0.383333	-206.408	30.1555	91.0604	-201.506	48.3451	58.5218	-186.1	50.1607	27.8728	-160.572	39.6811	14.0536	-192.008	-17.2726	28.0611	-178.411	-3.08192	1.41921	-167.31	30.9351	13.2809	-170.127	-23.0239	24.3941	-154.994	5.30817	1.69811	-152.241	36.0297	23.0403	-142.921	-22.6043	33.7561	-138.027	0.551325	10.171	-135.827	34.738	23.4294	-127.581	-18.7497	45.7682	-123.416	1.14938	24.2993	-128.384	31.8221	32.3166	-159.533	-23.4505	95.6817	-162.737	-12.8996	129.697	-195.673	-9.27991	104.595	
47	0.391667	-212.076	30.5135	94.8183	-205.089	42.3665	61.8543	-197.494	46.2844	24.317	-174.928	37.7231	7.87194	-201.796	-22.2158	29.0793	-193.42	-8.48205	4.02026	-182.823	27.1565	9.48182	-180.018	-28.3097	30.3179	-165.733	-4.28064	2.60165	-164.796	31.7405	20.9105	-154.593	-26.3358	30.5678	-150.433	-5.79036	9.73011	-148.078	30.383	20.1383	-139.392	-22.2121	48.4307	-133.56	-2.07885	21.6786	-139.483	29.2187	28.3846	-163.442	-22.5788	99.4874	-168.579	-15.5095	128.174	-201.101	-11.7863	108.661	
48	0.4	-216.209	28.9577	100.952	-211.921	39.9663	65.138	-207.588	42.3593	26.7695	-184.174	29.9336	11.3326	-212.6	-26.9007	36.1318	-202.247	-14.4542	7.12213	-192.008	19.8929	9.31072	-188.731	-33.2543	33.9403	-181.846	-9.22702	3.67333	-177.7	27.1309	20.5032	-168.756	-30.3827	36.7941	-158.136	-10.4565	10.2	-163.357	25.6517	21.1907	-146.338	-27.7301	46.2327	-146.126	-6.95857	19.5744	-149.157	20.7105	22.2258	-168.157	-26.3986	102.357	-169.996	-16.0619	129.094	-201.77	-13.5614	114.308	
49	0.408333	-224.324	27.943	99.8688	-219.516	36.6409	67.7928	-215.722	37.0115	31.6282	-197.823	25.5343	9.52958	-223.019	-30.9792	39.9703	-216.161	-17.5212	10.8442	-206.358	13.8858	10.5466	-201.963	-38.5251	37.0152	-192.632	-17.9005	7.6285	-183.192	21.0784	21.5903	-177.875	-37.1239	38.276	-173.741	-16.1247	12.0669	-170.226	18.2315	19.3975	-160.521	-30.8406	54.5673	-159.92	-16.7503	22.7685	-158.207	16.6763	18.9138	-177.654	-30.3809	103.122	-177.573	-14.4661	132.765	-210.278	-13.8477	117.028	
50	0.416667	-228.348	29.9586	107.897	-228.131	35.2899	69.4579	-225.169	34.4604	35.5346	-212.285	23.4697	9.8351	-236.955	-30.9583	51.0796	-226.927	-24.2638	16.8217	-219.155	7.34595	11.6905	-213.34	-41.6412	43.7986	-205.936	-24.1527	11.292	-194.829	12.1918	19.2645	-191.348	-40.8875	44.9598	-184.421	-21.9352	15.0515	-182.503	14.4346	22.4617	-170.291	-35.9668	52.7086	-168.377	-23.4172	23.7795	-172.549	7.39286	19.346	-185.003	-29.8483	108.699	-180.597	-17.6259	136.297	-216.424	-14.3679	122.107	
51	0.425	-233.908	32.1753	110.028	-236.515	38.6698	71.6575	-232.703	31.9846	37.719	-220.674	15.8307	12.0807	-247.821	-32.789	54.8157	-242.61	-25.7557	22.6391	-227.584	6.66656	16.0138	-228.451	-43.3633	49.6312	-224.636	-30.1964	16.5187	-206.198	11.028	24.204	-208.246	-43.7757	48.2549	-203.348	-27.4789	18.9575	-192.902	4.91095	22.7381	-181.728	-41.5797	58.4512	-185.152	-26.1283	25.6547	-185.666	3.77785	25.963	-197.049	-30.8785	110.23	-186.615	-16.9349	138.677	-227.424	-12.4184	125.92	
52	0.433333	-236.802	30.7794	109.928	-238.869	37.8645	75.0785	-241.753	28.1877	33.7899	-228.023	11.0367	16.2081	-259.591	-30.454	61.0328	-255.374	-26.2845	28.2005	-236.692	4.28373	20.3547	-244.07	-45.7599	51.5157	-239.777	-31.8201	20.5928	-221.965	5.6066	25.7022	-220.015	-47.8886	54.4168	-219.101	-33.495	23.6264	-204.433	0.0843409	25.5997	-198.671	-46.4104	60.8123	-200.331	-31.1421	29.2885	-192.088	1.15298	27.4126	-209.417	-31.4858	112.108	-195.602	-17.8205	143.779	-237.169	-9.53531	127.585	
53	0.441667	-241.192	37.4186	111.969	-245.785	37.8205	71.5787	-247.149	29.3824	35.5106	-235.575	9.35505	20.8187	-274.293	-24.9929	66.4844	-270.2	-21.7367	31.9988	-250.969	2.84473	22.4346	-264.088	-40.5365	57.7058	-252.958	-29.5885	24.0161	-229.662	1.7463	29.773	-242.397	-46.6586	57.8595	-234.302	-38.325	28.8227	-220.011	-6.7921	25.7587	-218.586	-48.5235	66.565	-218.328	-35.9789	34.2717	-206.512	-7.44285	30.0561	-219.464	-33.0324	120.673	-208.544	-18.1209	145.183	-247.346	-4.22649	130.921	
54	0.45	-246.671	38.4861	110.228	-247.316	41.0816	75.2319	-251.823	32.3578	38.4704	-243.528	10.3197	23.1308	-286.257	-19.1726	70.3566	-281.67	-16.7498	34.2376	-260.153	4.27129	25.4878	-273.828	-38.9456	64.5111	-266.034	-26.7728	28.9773	-240.097	2.56819	31.8202	-252.475	-47.3733	63.4611	-245.551	-38.2414	30.8356	-230.244	-8.61627	28.525	-233.268	-49.5787	67.5853	-231.056	-38.0334	37.3349	-217.053	-10.0573	34.6144	-232.304	-31.9598	122.298	-214.284	-16.3325	146.763	-252.276	2.30997	133.458	
55	0.458333	-246.518	41.5631	112.118	-250.487	44.2013	73.3924	-254.052	34.9136	41.3873	-252.943	12.953	20.0095	-295.613	-10.6945	76.1799	-293.659	-11.1436	41.0078	-268.498	8.19907	28.086	-288.552	-29.2126	68.5653	-280.654	-21.2467	31.5301	-249.613	0.231558	30.9653	-268.999	-39.6857	68.8426	-260.169	-32.9055	32.5065	-240.279	-7.24085	29.4033	-246.483	-48.2826	71.8	-246.46	-37.4765	41.4381	-223.871	-9.86612	34.7205	-244.185	-24.9408	124.272	-227.672	-12.9733	147.932	-257.695	7.42961	139.251	
56	0.466667	-250.256	46.3306	111.952	-251.843	49.1384	74.298	-258.414	42.4037	39.9729	-258.613	19.7008	21.1259	-307.571	1.08992	77.0031	-305.857	0.903521	43.9518	-280.033	15.3803	29.6289	-301.58	-20.1812	70.0896	-290.079	-14.8519	34.3993	-256.053	5.34746	34.1131	-281.797	-32.5608	71.0571	-272.984	-26.6794	35.9056	-249.166	-1.00943	33.2466	-260.667	-40.9926	77.2722	-260.606	-34.3088	44.4638	-236.228	-10.8503	35.2131	-256.687	-25.8008	124.504	-234.061	-13.2548	152.387	-265.909	14.3844	136.951	
57	0.475	-246.143	49.9265	114.83	-248.936	50.9721	77.7559	-257.85	41.3879	42.1865	-261.421	21.7911	25.914	-313.987	15.3772	75.3059	-309.796	11.407	44.5357	-280.541	23.1157	30.9504	-311.321	-8.24479	72.3522	-303.128	-6.71175	38.3106	-262.778	10.1538	34.6831	-297.14	-22.5424	68.7586	-287.764	-17.4433	38.4728	-259.466	-0.701223	35.2424	-276.099	-36.3629	78.1933	-271.65	-29.974	43.0265	-248.159	-12.014	34.0207	-265.302	-17.7133	126.979	-246.763	-6.2267	152.663	-268.844	20.8292	140.407	
